# xmcd
#
# Track frame offsets: 
#        150
#        31810
#        46592
#        70217
#        84285
#        109065
#        131082
#        151010
#        171932
#        194237
#        216405
#        234495
#        258480
#        276672
#        294770
#        314060
#
# Disc length: 4544 seconds
#
# Revision: 2
# Processed by: cddbd v1.5.2PL0 Copyright (c) Steve Scherf et al.
# Submitted via: ExactAudioCopy v0.95b4
#
DISCID=ec11be10
DTITLE=Various Artist - The Temptations"One By One" (The Best of Their Solo Y
DTITLE=ears) Disc 2
DYEAR=1996
DGENRE=R&B
TTITLE0=Eddie Kendricks - Boogie Down
TTITLE1=Eddie Kendricks - Shoeshine Boy
TTITLE2=Eddie Kendricks - Happy
TTITLE3=Eddie Kendricks - Get the Cream Off the Top
TTITLE4=David Ruffin - Walk Away From Love
TTITLE5=David Ruffin - Heavy Love
TTITLE6=David Ruffin - Statue of a Fool
TTITLE7=Eddie Kendricks - He's a Friend
TTITLE8=Dennis Edwards - When the Lights Come Down On Love(Previously 
TTITLE8=Unreleased)
TTITLE9=David Ruffin - Everything's Coming Up Love
TTITLE10=David Ruffin - Just Let Me Hold You for a Night
TTITLE11=David Ruffin - You're My Peace of Mind
TTITLE12=Dennis Edwards feat. Siedah Garrett - Don't Look Any Further
TTITLE13=Dennis Edwards - You're My (Aphrodisiac)
TTITLE14=Dennis Edwards - Coolin' Out
TTITLE15=Dennis Edwards and the Temptations - Soulmate
EXTD=
EXTT0=
EXTT1=
EXTT2=
EXTT3=
EXTT4=
EXTT5=
EXTT6=
EXTT7=
EXTT8=
EXTT9=
EXTT10=
EXTT11=
EXTT12=
EXTT13=
EXTT14=
EXTT15=
PLAYORDER=
